<?xml version="1.0" encoding="utf-8"?>
<!-- Svg Vector Icons : http://www.onlinewebfonts.com/icon -->
<!DOCTYPE svg PUBLIC "-//W3C//DTD SVG 1.1//EN" "http://www.w3.org/Graphics/SVG/1.1/DTD/svg11.dtd">
<svg version="1.1" xmlns="http://www.w3.org/2000/svg" xmlns:xlink="http://www.w3.org/1999/xlink" x="0px" y="0px" viewBox="0 0 256 256" enable-background="new 0 0 256 256" xml:space="preserve">
<metadata> Svg Vector Icons : http://www.onlinewebfonts.com/icon </metadata>
<g><g><g><path fill="#000000" d="M51.4,15.2c-18.4,2.6-33.6,4.9-33.8,5c-0.1,0.1,5.4,5.9,12.4,12.8l12.6,12.6l-1.5,1.8c-0.8,1-3,3.6-4.9,5.9c-5.4,6.4-10,13.7-14.4,22.8c-5.8,11.8-8.9,22-11.2,35.9c-1,6.4-0.8,25.6,0.3,32.9c4,25,14.8,46.9,32,64.7c18,18.6,39.8,30.1,66.4,34.8c9.7,1.7,27.5,1.7,37.3,0c20.3-3.5,37-10.7,52.5-22.4c21.1-15.8,36.6-39.1,43.1-64.5c2.9-11.2,3.6-17.6,3.6-29.8c0-19.5-3.5-34.8-11.9-52.1c-11.8-24.2-33-44.7-57.7-55.8c-7.3-3.2-17.2-6.5-17.7-5.9c-0.5,0.6-4.5,15.5-4.2,15.7c0.1,0.1,2.6,1,5.5,1.9c25.9,8.5,47.5,27.5,59.4,52.4c17.2,35.9,11.8,78.3-13.8,109c-19.9,23.8-50.5,37.3-81.5,36c-14.7-0.6-26.6-3.6-39.8-9.9c-13.7-6.6-25.4-15.7-34.6-27.1C26.1,162.7,20.2,124.6,34,90.2c4.3-10.7,10.4-20.8,17.6-28.9l3.1-3.5l11,11c7.2,7.2,11.1,10.7,11.2,10.2c0.1-0.4,2.3-15.3,4.8-33c2.5-17.7,4.6-33,4.8-34c0.3-1.4,0.2-1.7-0.6-1.6C85.4,10.4,69.9,12.6,51.4,15.2z"/></g></g></g>
</svg>